<svg width="34" height="34" viewBox="0 0 34 34" fill="none" xmlns="http://www.w3.org/2000/svg">
<g clip-path="url(#clip0_4_60)">
<path fill-rule="evenodd" clip-rule="evenodd" d="M14.3012 25.9781C7.61812 25.9781 2.20045 20.655 2.20045 14.0781C2.20045 7.50125 7.61812 2.16754 14.3012 2.16754C20.9844 2.16754 26.4031 7.50125 26.4031 14.0781C26.4031 20.655 20.9844 25.9781 14.3012 25.9781ZM33.6685 32.1406L24.8933 23.5025C27.1904 21.0056 28.6025 17.7119 28.6025 14.0781C28.6025 6.30062 22.1999 0 14.3012 0C6.40262 0 0 6.30062 0 14.0781C0 21.845 6.40262 28.1456 14.3012 28.1456C17.714 28.1456 20.8441 26.9663 23.3028 25.0007L32.113 33.6706C32.5433 34.0956 33.2392 34.0956 33.6685 33.6706C34.0988 33.2562 34.0988 32.5656 33.6685 32.1406Z" fill="white"/>
</g>
<defs>
<clipPath id="clip0_4_60">
<rect width="34" height="34" fill="white"/>
</clipPath>
</defs>
</svg>
