<svg width="162" height="22" viewBox="0 0 162 22" fill="none" xmlns="http://www.w3.org/2000/svg">
<path d="M0.5 11C0.5 5.20101 5.20101 0.5 11 0.5H151C156.799 0.5 161.5 5.20101 161.5 11C161.5 16.799 156.799 21.5 151 21.5H11C5.20101 21.5 0.5 16.799 0.5 11Z" fill="white"/>
<path d="M11 0.5V1H151V0.5V0H11V0.5ZM151 21.5V21H11V21.5V22H151V21.5ZM11 21.5V21C5.47715 21 1 16.5228 1 11H0.5H0C0 17.0751 4.92487 22 11 22V21.5ZM161.5 11H161C161 16.5228 156.523 21 151 21V21.5V22C157.075 22 162 17.0751 162 11H161.5ZM151 0.5V1C156.523 1 161 5.47715 161 11H161.5H162C162 4.92487 157.075 0 151 0V0.5ZM11 0.5V0C4.92487 0 0 4.92487 0 11H0.5H1C1 5.47715 5.47715 1 11 1V0.5Z" fill="#D9D9D9"/>
<path fill-rule="evenodd" clip-rule="evenodd" d="M138.39 15.1996C135.638 15.1996 133.406 13.0072 133.406 10.2984C133.406 7.58958 135.638 5.39278 138.39 5.39278C141.143 5.39278 143.375 7.58958 143.375 10.2984C143.375 13.0072 141.143 15.1996 138.39 15.1996ZM146.367 17.7378L142.753 14.18C143.699 13.1516 144.281 11.795 144.281 10.2984C144.281 7.09508 141.643 4.50003 138.39 4.50003C135.137 4.50003 132.5 7.09508 132.5 10.2984C132.5 13.4974 135.137 16.0924 138.39 16.0924C139.796 16.0924 141.085 15.6067 142.098 14.7971L145.726 18.368C145.904 18.543 146.19 18.543 146.367 18.368C146.544 18.1973 146.544 17.9129 146.367 17.7378Z" fill="black"/>
</svg>
