<svg width="33" height="25" viewBox="0 0 33 25" fill="none" xmlns="http://www.w3.org/2000/svg">
<path d="M1.5194 0.000147068C1.32089 -0.00260885 1.1238 0.0333926 0.939583 0.106059C0.755369 0.178725 0.587704 0.286608 0.446333 0.423436C0.304961 0.560265 0.192703 0.723311 0.11608 0.903098C0.0394578 1.08289 0 1.27583 0 1.47072C0 1.66561 0.0394578 1.85855 0.11608 2.03834C0.192703 2.21813 0.304961 2.38117 0.446333 2.518C0.587704 2.65483 0.755369 2.76271 0.939583 2.83538C1.1238 2.90804 1.32089 2.94404 1.5194 2.94129H31.4806C31.6791 2.94404 31.8762 2.90804 32.0604 2.83538C32.2446 2.76271 32.4123 2.65483 32.5537 2.518C32.695 2.38117 32.8073 2.21813 32.8839 2.03834C32.9605 1.85855 33 1.66561 33 1.47072C33 1.27583 32.9605 1.08289 32.8839 0.903098C32.8073 0.723311 32.695 0.560265 32.5537 0.423436C32.4123 0.286608 32.2446 0.178725 32.0604 0.106059C31.8762 0.0333926 31.6791 -0.00260885 31.4806 0.000147068H1.5194ZM1.5194 11.0294C1.32089 11.0267 1.1238 11.0627 0.939583 11.1353C0.755369 11.208 0.587704 11.3159 0.446333 11.4527C0.304961 11.5895 0.192703 11.7526 0.11608 11.9324C0.0394578 12.1122 0 12.3051 0 12.5C0 12.6949 0.0394578 12.8878 0.11608 13.0676C0.192703 13.2474 0.304961 13.4105 0.446333 13.5473C0.587704 13.6841 0.755369 13.792 0.939583 13.8647C1.1238 13.9373 1.32089 13.9733 1.5194 13.9706H31.4806C31.6791 13.9733 31.8762 13.9373 32.0604 13.8647C32.2446 13.792 32.4123 13.6841 32.5537 13.5473C32.695 13.4105 32.8073 13.2474 32.8839 13.0676C32.9605 12.8878 33 12.6949 33 12.5C33 12.3051 32.9605 12.1122 32.8839 11.9324C32.8073 11.7526 32.695 11.5895 32.5537 11.4527C32.4123 11.3159 32.2446 11.208 32.0604 11.1353C31.8762 11.0627 31.6791 11.0267 31.4806 11.0294H1.5194ZM1.5194 22.0587C1.32089 22.056 1.1238 22.092 0.939583 22.1646C0.755369 22.2373 0.587704 22.3452 0.446333 22.482C0.304961 22.6188 0.192703 22.7819 0.11608 22.9617C0.0394578 23.1414 0 23.3344 0 23.5293C0 23.7242 0.0394578 23.9171 0.11608 24.0969C0.192703 24.2767 0.304961 24.4397 0.446333 24.5766C0.587704 24.7134 0.755369 24.8213 0.939583 24.8939C1.1238 24.9666 1.32089 25.0026 1.5194 24.9999H31.4806C31.6791 25.0026 31.8762 24.9666 32.0604 24.8939C32.2446 24.8213 32.4123 24.7134 32.5537 24.5766C32.695 24.4397 32.8073 24.2767 32.8839 24.0969C32.9605 23.9171 33 23.7242 33 23.5293C33 23.3344 32.9605 23.1414 32.8839 22.9617C32.8073 22.7819 32.695 22.6188 32.5537 22.482C32.4123 22.3452 32.2446 22.2373 32.0604 22.1646C31.8762 22.092 31.6791 22.056 31.4806 22.0587H1.5194Z" fill="white"/>
</svg>
